<svg fill="#F1F05A" id="Capa_1" enable-background="new 0 0 507.909 507.909" height="512" viewBox="0 0 507.909 507.909" width="512" xmlns="http://www.w3.org/2000/svg"><g><path d="m262.543 492.909h-103.242c19.728-7.954 42.126-22.28 62.098-47.929 2.545-3.268 1.958-7.98-1.31-10.525s-7.98-1.959-10.525 1.31c-18.392 23.619-41.148 39.497-67.633 47.191-11.198 3.253-20.745 4.276-26.967 4.548l1.643-14.039c25.351-6.519 59.575-23.035 87.098-64.184 8.932-13.355 13.075-27.218 12.376-40.628 10.353 12.85 13.214 27.92 7.77 43.236-1.387 3.903.652 8.191 4.555 9.579 3.901 1.385 8.191-.651 9.579-4.555 6.862-19.306 3.75-38.622-8.153-54.949 3.379-.585 6.721-1.665 9.933-3.248 28.775-14.176 67.626-64.183 115.475-148.633 37.671-66.488 73.229-141.336 91.758-186.02 3.213-7.75.588-16.42-6.385-21.083-6.973-4.664-15.989-3.779-21.924 2.149-36.042 36.003-109.293 116.546-163.369 190.872-2.436 3.35-1.697 8.04 1.652 10.477 3.35 2.436 8.041 1.696 10.478-1.652 53.566-73.626 126.133-153.417 161.84-189.085.912-.91 1.915-1.009 2.984-.293 1.069.715 1.361 1.681.868 2.87-30.412 73.342-96.905 206.849-151.958 279.596l-19.908-13.315 48.434-72.415c2.303-3.443 1.379-8.101-2.065-10.404s-8.102-1.378-10.403 2.065l-48.434 72.415-19.934-13.333c6.887-11.777 14.365-23.349 21.346-33.632 2.326-3.427 1.434-8.091-1.993-10.418-3.428-2.325-8.091-1.434-10.418 1.993-9.865 14.533-18.264 27.95-25.191 40.229-.198.298-.365.608-.515.922-14.65 26.126-22.565 47.038-23.581 62.42-.208 3.145-.011 6.232.548 9.208-2.609-.429-5.369-.599-8.282-.408-36.713 2.403-66.546 31.383-70.937 68.908l-10.621 90.76h-90.167c-4.142 0-7.5 3.358-7.5 7.5s3.358 7.5 7.5 7.5h253.48c4.142 0 7.5-3.358 7.5-7.5 0-4.143-3.358-7.5-7.5-7.5zm-71.306-91.968c-22.921 34.269-50.752 49.612-72.743 56.403l3.115-26.623c20.379-11.701 37.997-28.504 52.381-50.009 7.126-10.655 11.217-21.506 12.227-32.339 3.151.446 6.352 1.622 9.993 3.659 8 15.182 6.296 32.062-4.973 48.909zm12.252-75.511c.877-13.273 8.249-31.087 18.028-49.378l50.371 33.691c-14.206 17.342-27.418 29.935-38.751 35.518-6.757 3.329-14.464 2.861-20.616-1.254-6.152-4.116-9.529-11.06-9.032-18.577zm-32.581 24.506c-1.209 7.388-4.349 14.905-9.386 22.437-10.721 16.029-23.357 29.148-37.667 39.168l.895-7.648c3.101-26.511 21.808-47.738 46.158-53.957z"/><path d="m356.382 492.909h-43.452c-4.142 0-7.5 3.358-7.5 7.5s3.358 7.5 7.5 7.5h43.452c4.142 0 7.5-3.358 7.5-7.5 0-4.143-3.358-7.5-7.5-7.5z"/><path d="m498.846 492.909h-93.97c-4.142 0-7.5 3.358-7.5 7.5s3.358 7.5 7.5 7.5h93.97c4.142 0 7.5-3.358 7.5-7.5 0-4.143-3.358-7.5-7.5-7.5z"/></g></svg>